<svg id="Layer_1" data-name="Layer 1" xmlns="http://www.w3.org/2000/svg" viewBox="0 0 256.28 43.89"><defs><style>.cls-1{fill:#1f1646;}.cls-2{fill:#ff4438;}</style></defs><title>Omnitelecomlogo</title><path class="cls-1" d="M49.64,16.81a8.29,8.29,0,0,0-5-2.82,9.4,9.4,0,0,0-1.21-.1,24,24,0,0,0-8.88,1.84,1.1,1.1,0,0,0-.68.82l-3.8,20.91c-.09.55.18.87.68.87h5.27a.76.76,0,0,0,.82-.73L40,20.44a6.36,6.36,0,0,1,2.66-.55c2.06,0,3,1.28,2.51,4.21L42.83,37.46a.68.68,0,0,0,.73.87h5.17a.78.78,0,0,0,.83-.73L51.8,25.06c.05-.25.07-.5.1-.75a10.46,10.46,0,0,0-2.26-7.5"/><path class="cls-1" d="M55.92,13.9A13.93,13.93,0,0,0,50.67,15c.17.17.33.34.49.52a11.61,11.61,0,0,1,2.32,4.56,5.74,5.74,0,0,1,1.43-.2c2.2,0,3.25,1.28,2.75,4.21L55.32,37.46c0,.51.19.87.74.87h5.17a.76.76,0,0,0,.82-.73l2.29-12.54c1.1-6.5-2.11-11.16-8.42-11.16"/><path class="cls-1" d="M235,16.81A8.29,8.29,0,0,0,230,14a9.55,9.55,0,0,0-1.21-.1,24,24,0,0,0-8.88,1.84,1.11,1.11,0,0,0-.69.82l-3.8,20.91c-.09.55.19.87.69.87h5.26a.77.77,0,0,0,.83-.73l3.11-17.16a6.35,6.35,0,0,1,2.65-.55c2.06,0,3,1.28,2.52,4.21l-2.33,13.36a.68.68,0,0,0,.73.87h5.17a.76.76,0,0,0,.82-.73l2.25-12.54c0-.25.07-.5.1-.75a10.5,10.5,0,0,0-2.26-7.5"/><path class="cls-1" d="M241.24,13.9A13.92,13.92,0,0,0,236,15c.16.17.33.34.48.52a11.48,11.48,0,0,1,2.32,4.56,5.88,5.88,0,0,1,1.44-.2c2.2,0,3.25,1.28,2.75,4.21l-2.34,13.36c-.05.51.18.87.73.87h5.18a.77.77,0,0,0,.82-.73l2.29-12.54c1.1-6.5-2.11-11.16-8.43-11.16"/><path class="cls-1" d="M20.45,13.9l-.72,0,.07.08a12.36,12.36,0,0,1,2.74,8.49h0a7.73,7.73,0,0,1-.08,1.14L21.41,29.5a3.89,3.89,0,0,1-4.21,3.43c-2.15,0-3.11-1.46-2.7-3.7l1.05-5.91A4.14,4.14,0,0,1,20.39,20a9.83,9.83,0,0,0-2.1-4.68,7.71,7.71,0,0,0-1.09-1,10.48,10.48,0,0,0-8.6,8.64l-1,5.67c-1.06,5.81,2.65,10.39,8.78,10.39,6.73,0,10.9-3.3,12-9.06l1.05-5.77c1-5.58-2.7-10.2-9-10.2"/><path class="cls-1" d="M205.78,13.9l-.72,0,.07.08a12.35,12.35,0,0,1,2.73,8.49h0a6.51,6.51,0,0,1-.07,1.14l-1,5.86a3.9,3.9,0,0,1-4.21,3.43c-2.15,0-3.11-1.46-2.7-3.7l1-5.91A4,4,0,0,1,205,19.89a4.09,4.09,0,0,1,.72.07,9.83,9.83,0,0,0-2.1-4.68,7.71,7.71,0,0,0-1.09-1,10.5,10.5,0,0,0-8.61,8.64l-1,5.67c-1.05,5.81,2.66,10.39,8.79,10.39,6.73,0,10.89-3.3,11.95-9.06l1.05-5.77c1-5.58-2.7-10.2-9-10.2"/><path class="cls-1" d="M66.31,38.33a.68.68,0,0,1-.73-.87l3.75-20.91a1.1,1.1,0,0,1,.68-.82A27.5,27.5,0,0,1,79.3,13.9c6.92,0,10,4.39,8.88,10.89L85.9,37.6a.82.82,0,0,1-.87.73H79.76a.71.71,0,0,1-.73-.87L81.32,24.1c.55-2.88-.46-4.21-2.88-4.21a7.57,7.57,0,0,0-2.93.55l-3,17.16a.78.78,0,0,1-.87.73Z"/><path class="cls-1" d="M145.69,38.93c-4.95,0-7.51-3.89-6.5-9.84L143.5,4.41a.8.8,0,0,1,.83-.73h5.3a.67.67,0,0,1,.69.87L146,29.46c-.41,2.19.14,3.43,1.78,3.43h.92c.55,0,.82.18.73.73L148.71,38c-.09.46-.28.68-.6.73a11.54,11.54,0,0,1-2.42.23"/><path class="cls-1" d="M182.71,38.93c-6.18,0-9.93-4.12-8.78-10.62l1-5.67c1-5.77,5.59-8.75,11.4-8.75a11.43,11.43,0,0,1,6.95,2.2.74.74,0,0,1,.14,1.1l-2.7,3.48a.76.76,0,0,1-1.1.14,6.92,6.92,0,0,0-3.52-1,4,4,0,0,0-4.3,3.52l-1,5.4c-.55,2.79.68,4.21,2.93,4.21a8.81,8.81,0,0,0,4.3-1.33.71.71,0,0,1,1.1.28L191,35.86a.73.73,0,0,1-.37,1.1,16,16,0,0,1-7.87,2"/><path class="cls-1" d="M128.66,13.9c-5.53,0-10.29,2.79-11.39,8.78l-1.19,6.64c-1.06,6,3.11,9.61,9.1,9.61a16.47,16.47,0,0,0,9.57-2.79A.8.8,0,0,0,135,35l-1.88-3.52c-.23-.51-.6-.55-1.05-.23a12,12,0,0,1-5.95,1.83c-2.52,0-3.62-1.19-3.16-3.62l1.19-6.45a3.8,3.8,0,0,1,3.89-3.34c2.33,0,3.11,1.6,2.79,3.43l-.23,1.14H126l-.83,4.58h10.7a.76.76,0,0,0,.82-.69l.78-4.44c1.24-6.72-2.93-9.83-8.79-9.83"/><path class="cls-1" d="M163.79,13.9c-5.54,0-10.3,2.79-11.4,8.78l-1.18,6.64c-1.06,6,3.11,9.61,9.1,9.61a16.5,16.5,0,0,0,9.57-2.79.79.79,0,0,0,.27-1.1l-1.87-3.52c-.23-.51-.6-.55-1.06-.23a12,12,0,0,1-5.95,1.83c-2.51,0-3.61-1.19-3.15-3.62l1.19-6.45a3.8,3.8,0,0,1,3.88-3.34c2.34,0,3.12,1.6,2.8,3.43l-.23,1.14h-4.65l-.83,4.58H171a.77.77,0,0,0,.82-.69l.78-4.44c1.23-6.72-2.93-9.83-8.79-9.83"/><path class="cls-1" d="M96.22,16.66a8.36,8.36,0,0,0-2.59-2,.69.69,0,0,0-.42.6L89.27,37.46a.67.67,0,0,0,.69.87h5.31a.81.81,0,0,0,.87-.73l2.29-12.93a10.64,10.64,0,0,0-2.21-8"/><path class="cls-1" d="M115.85,14.54h-3.66l.27-4.9a.69.69,0,0,0-.78-.82H107.2a.81.81,0,0,0-.87.73l-.87,5H96.94a9,9,0,0,1,.79.84,11.64,11.64,0,0,1,2.43,5h4.28l-1.54,8.8c-1.19,6.68,2.06,9.75,7.14,9.75a12.35,12.35,0,0,0,2.33-.23.84.84,0,0,0,.78-.78l.73-4.25c.14-.6-.18-.83-.73-.78h-1.24c-1.87,0-2.6-1.1-2.24-3.16l1.56-9.31H115a.79.79,0,0,0,.87-.73l.73-4.28a.68.68,0,0,0-.73-.87"/><polygon class="cls-2" points="102.46 8.73 100.57 7.64 102.46 6.55 101.27 4.5 99.39 5.59 99.39 3.41 97.02 3.41 97.02 5.59 95.13 4.5 93.95 6.55 95.83 7.64 93.95 8.73 95.13 10.78 97.02 9.69 97.02 11.87 99.39 11.87 99.39 9.69 101.27 10.78 102.46 8.73"/></svg>